# 3ds Max Wavefront OBJ Exporter v0.99 - (c)2007 guruware
# File Created: 05.12.2023 13:55:02

mtllib tank_turret.mtl

#
# object Gun_Cylinder_001
#

v  -0.0189 1.5845 -0.7669
v  -0.0189 1.5783 -1.1781
v  -0.1132 1.5239 -1.1781
v  -0.1185 1.5270 -0.7669
v  -0.1132 1.4151 -1.1781
v  -0.1185 1.4120 -0.7669
v  -0.0189 1.3607 -1.1781
v  -0.0189 1.3545 -0.7669
v  -0.0189 1.5168 -1.2004
v  -0.0599 1.4931 -1.2004
v  -0.0189 1.4222 -1.2004
v  -0.0599 1.4459 -1.2004
v  -0.0503 1.4876 -1.7561
v  -0.0503 1.4514 -1.7561
v  -0.0189 1.4332 -1.7561
v  -0.0189 1.5058 -1.7561
v  -0.5169 1.2833 -0.5695
v  -0.4811 1.2809 -0.7994
v  0.4432 1.2809 -0.7994
v  0.4790 1.2833 -0.5695
v  -0.4547 1.4605 -0.8807
v  0.4169 1.4605 -0.8807
v  0.4432 1.6024 -0.8028
v  -0.4811 1.6024 -0.8028
v  -0.5169 1.6296 -0.6726
v  0.4790 1.6296 -0.6726
v  -0.5169 1.5543 -0.4977
v  0.4790 1.5543 -0.4977
v  0.0807 1.5270 -0.7669
v  0.0753 1.5239 -1.1781
v  0.0807 1.4120 -0.7669
v  0.0753 1.4151 -1.1781
v  0.0220 1.4931 -1.2004
v  0.0220 1.4459 -1.2004
v  0.0125 1.4514 -1.7561
v  0.0125 1.4876 -1.7561
v  -0.3790 1.6628 0.5817
v  -0.5583 1.1920 0.6034
v  -0.2530 1.1920 0.8428
v  -0.1643 1.6669 0.7496
v  -0.5476 1.6485 0.0254
v  -0.7131 1.1904 0.0517
v  -0.5330 1.6255 -0.5950
v  -0.6101 1.4052 -0.6576
v  -0.7014 1.1697 -0.2827
v  0.3550 1.1697 -0.7245
v  -0.3928 1.1697 -0.7245
v  0.4951 1.6255 -0.5950
v  0.5723 1.4052 -0.6576
v  0.5097 1.6485 0.0254
v  0.1264 1.6669 0.7496
v  0.3411 1.6628 0.5817
v  0.3582 1.7026 0.4523
v  -0.3961 1.7026 0.4523
v  -0.3995 1.6729 1.1071
v  -0.2128 1.6775 1.2088
v  -0.0189 1.6775 1.2637
v  0.1749 1.6775 1.2088
v  0.3616 1.6729 1.1071
v  -0.2728 1.5957 0.7171
v  -0.0189 1.5957 0.8276
v  -0.0189 1.9292 0.8089
v  -0.2563 1.9292 0.7039
v  -0.3868 1.9292 0.4503
v  -0.4100 1.5957 0.4503
v  -0.2563 1.9292 0.1967
v  -0.2728 1.5957 0.1834
v  -0.0189 1.9292 0.0916
v  -0.0189 1.5957 0.0729
v  -0.4063 1.6465 0.4523
v  -0.4261 1.6160 1.0848
v  -0.2510 1.5232 1.2091
v  -0.3995 1.5537 1.1205
v  -0.3961 1.5552 0.4523
v  -0.2510 1.5428 0.7301
v  -0.2153 1.3602 1.2075
v  -0.0189 1.3635 1.2509
v  -0.2153 1.3506 0.7731
v  0.1774 1.3506 0.7731
v  0.1774 1.3602 1.2075
v  0.5204 1.1920 0.6034
v  0.2151 1.1920 0.8428
v  0.6752 1.1904 0.0517
v  0.6636 1.1697 -0.2827
v  0.2349 1.5957 0.7171
v  0.2185 1.9292 0.7039
v  0.3489 1.9292 0.4503
v  0.3721 1.5957 0.4503
v  0.2349 1.5957 0.1834
v  0.2185 1.9292 0.1967
v  0.3882 1.6160 1.0848
v  0.3684 1.6465 0.4523
v  0.2131 1.5232 1.2091
v  0.2131 1.5428 0.7301
v  0.3582 1.5552 0.4523
v  0.3616 1.5537 1.1205
# 96 vertices

vn -0.0000 0.9999 -0.0150
vn -0.8659 0.4999 -0.0150
vn -0.8659 -0.4999 -0.0150
vn -0.0000 -0.9999 -0.0150
vn -0.0000 0.3401 -0.9404
vn -0.2945 0.1700 -0.9404
vn -0.0000 -0.3401 -0.9404
vn -0.2945 -0.1700 -0.9404
vn -0.8659 0.4999 -0.0198
vn -0.8659 -0.4999 -0.0198
vn -0.0000 -0.9998 -0.0198
vn -0.0000 0.9998 -0.0198
vn 0.0000 -0.9999 0.0104
vn -0.0000 -0.4128 -0.9108
vn -0.0000 0.0425 -0.9991
vn -0.0000 0.4814 -0.8765
vn -0.0000 0.9788 -0.2046
vn -0.9918 -0.0202 -0.1265
vn -0.9808 -0.0307 -0.1926
vn -0.9905 -0.0217 -0.1359
vn -0.9493 -0.0033 -0.3143
vn -1.0000 0.0000 0.0000
vn 0.0000 0.9184 0.3956
vn 0.8659 0.4999 -0.0150
vn 0.8659 -0.4999 -0.0150
vn 0.2945 0.1700 -0.9404
vn 0.2945 -0.1700 -0.9404
vn 0.8659 -0.4999 -0.0198
vn 0.8659 0.4999 -0.0198
vn 0.9918 -0.0202 -0.1265
vn 0.9905 -0.0217 -0.1359
vn 0.9808 -0.0307 -0.1926
vn 0.9493 -0.0033 -0.3143
vn 1.0000 0.0000 -0.0000
vn -0.0000 0.0000 -1.0000
vn -0.5965 0.2613 0.7589
vn -0.3365 0.2420 0.9101
vn -0.2936 0.2371 0.9261
vn -0.9013 0.3479 0.2581
vn -0.9431 0.3305 -0.0370
vn -0.0000 0.2734 -0.9619
vn -0.7049 -0.5106 -0.4924
vn -0.0000 0.9997 -0.0260
vn -0.0000 0.9993 -0.0370
vn -0.0000 0.9997 -0.0254
vn 0.0000 0.9994 0.0351
vn -0.4013 0.0536 0.9144
vn -0.8875 0.0618 0.4566
vn -0.8875 0.0618 -0.4566
vn -0.4013 0.0536 -0.9144
vn -0.9506 0.3104 -0.0026
vn -0.9988 0.0463 -0.0131
vn -0.9997 0.0206 -0.0141
vn -0.1219 -0.9924 -0.0185
vn -0.3476 0.0356 0.9370
vn -0.3325 0.0289 0.9427
vn -0.2219 -0.0193 0.9749
vn 0.0000 -0.0198 0.9998
vn -0.9803 -0.1973 -0.0022
vn 0.0000 -0.9997 0.0247
vn 0.0000 1.0000 -0.0000
vn -0.9709 -0.2383 -0.0232
vn -0.5060 0.1085 0.8557
vn 0.5965 0.2613 0.7589
vn 0.2936 0.2371 0.9261
vn 0.3365 0.2420 0.9101
vn 0.9013 0.3479 0.2581
vn 0.9431 0.3305 -0.0370
vn 0.7049 -0.5106 -0.4924
vn 0.4013 0.0536 0.9144
vn 0.8875 0.0618 0.4566
vn 0.8875 0.0618 -0.4566
vn 0.4013 0.0536 -0.9144
vn 0.9506 0.3104 -0.0026
vn 0.9997 0.0206 -0.0141
vn 0.9988 0.0463 -0.0131
vn 0.1219 -0.9924 -0.0185
vn 0.2219 -0.0193 0.9749
vn 0.3325 0.0289 0.9427
vn 0.3476 0.0356 0.9370
vn 0.9803 -0.1973 -0.0022
vn 0.9709 -0.2383 -0.0232
vn 0.5060 0.1085 0.8557
# 83 vertex normals

vt 0.3542 0.8154 0.0000
vt 0.2084 0.8187 0.0000
vt 0.2039 0.7858 0.0000
vt 0.3183 0.9569 0.0000
vt 0.0679 0.7961 0.0000
vt 0.3243 0.8193 0.0000
vt 0.2160 0.7928 0.0000
# 7 texture coords

o Gun_Cylinder_001
g Gun_Cylinder_001
usemtl tank_edited_Material__26
s 1
f 1/1/1 2/1/1 3/1/2 
f 3/1/2 4/1/2 1/1/1 
f 4/1/2 3/1/2 5/1/3 
f 5/1/3 6/1/3 4/1/2 
f 6/1/3 5/1/3 7/1/4 
f 7/1/4 8/1/4 6/1/3 
f 9/1/5 10/1/6 3/1/6 
f 3/1/6 2/1/5 9/1/5 
f 11/1/7 7/1/7 5/1/8 
f 5/1/8 12/1/8 11/1/7 
f 10/1/6 12/1/8 5/1/8 
f 5/1/8 3/1/6 10/1/6 
f 13/2/9 14/2/10 12/2/10 
f 12/2/10 10/2/9 13/2/9 
f 11/2/11 12/2/10 14/2/10 
f 14/2/10 15/2/11 11/2/11 
f 10/2/9 9/2/12 16/2/12 
f 16/2/12 13/2/9 10/2/9 
f 17/3/13 18/3/13 19/3/13 
f 19/3/13 20/3/13 17/3/13 
f 19/3/14 18/3/14 21/3/15 
f 21/3/15 22/3/15 19/3/14 
f 23/3/16 22/3/15 21/3/15 
f 21/3/15 24/3/16 23/3/16 
f 23/3/17 24/3/17 25/3/17 
f 25/3/17 26/3/17 23/3/17 
f 25/3/18 24/3/19 18/3/19 
f 18/3/19 17/3/20 25/3/18 
f 21/3/21 18/3/21 24/3/21 
f 25/3/18 17/3/20 27/3/22 
f 26/3/23 25/3/23 27/3/23 
f 27/3/23 28/3/23 26/3/23 
f 29/1/24 30/1/24 2/1/1 
f 2/1/1 1/1/1 29/1/24 
f 31/1/25 32/1/25 30/1/24 
f 30/1/24 29/1/24 31/1/25 
f 8/1/4 7/1/4 32/1/25 
f 32/1/25 31/1/25 8/1/4 
f 33/1/26 9/1/5 2/1/5 
f 2/1/5 30/1/26 33/1/26 
f 7/1/7 11/1/7 34/1/27 
f 34/1/27 32/1/27 7/1/7 
f 32/1/27 34/1/27 33/1/26 
f 33/1/26 30/1/26 32/1/27 
f 35/2/28 36/2/29 33/2/29 
f 33/2/29 34/2/28 35/2/28 
f 15/2/11 35/2/28 34/2/28 
f 34/2/28 11/2/11 15/2/11 
f 36/2/29 16/2/12 9/2/12 
f 9/2/12 33/2/29 36/2/29 
f 26/3/30 20/3/31 19/3/32 
f 19/3/32 23/3/32 26/3/30 
f 22/3/33 23/3/33 19/3/33 
f 26/3/30 28/3/34 20/3/31 
f 35/4/35 15/4/35 14/4/35 
f 14/4/35 13/4/35 16/4/35 
f 35/4/35 14/4/35 16/4/35 
f 36/4/35 35/4/35 16/4/35 
f 37/5/36 38/5/36 39/5/37 
f 39/5/37 40/5/38 37/5/36 
f 38/5/39 37/5/39 41/5/39 
f 41/5/39 42/5/39 38/5/39 
f 41/5/40 43/5/40 44/5/40 
f 42/5/40 41/5/40 44/5/40 
f 42/5/40 44/5/40 45/5/40 
f 46/5/41 47/5/41 44/5/41 
f 46/5/41 44/5/41 43/5/41 
f 46/5/41 43/5/41 48/5/41 
f 46/5/41 48/5/41 49/5/41 
f 45/5/42 44/5/42 47/5/42 
f 50/5/43 48/5/44 43/5/44 
f 43/5/44 41/5/43 50/5/43 
f 51/5/45 52/5/45 50/5/43 
f 40/5/45 51/5/45 50/5/43 
f 40/5/45 50/5/43 41/5/43 
f 40/5/45 41/5/43 37/5/45 
f 53/6/46 54/6/46 55/6/46 
f 53/6/46 55/6/46 56/6/46 
f 56/6/46 57/6/46 58/6/46 
f 53/6/46 56/6/46 58/6/46 
f 59/6/46 53/6/46 58/6/46 
f 60/7/47 61/7/47 62/7/47 
f 62/7/47 63/7/47 60/7/47 
f 63/7/48 64/7/48 65/7/48 
f 65/7/48 60/7/48 63/7/48 
f 65/7/49 64/7/49 66/7/49 
f 66/7/49 67/7/49 65/7/49 
f 66/7/50 68/7/50 69/7/50 
f 69/7/50 67/7/50 66/7/50 
f 54/6/51 70/6/52 71/6/53 
f 71/6/53 55/6/51 54/6/51 
f 72/6/54 73/6/54 74/6/54 
f 74/6/54 75/6/54 72/6/54 
f 56/6/55 72/6/56 76/6/57 
f 57/6/58 56/6/55 76/6/57 
f 57/6/58 76/6/57 77/6/58 
f 75/6/59 78/6/59 76/6/59 
f 76/6/59 72/6/59 75/6/59 
f 79/6/60 80/6/60 77/6/60 
f 79/6/60 77/6/60 76/6/60 
f 78/6/60 79/6/60 76/6/60 
f 62/7/61 68/7/61 66/7/61 
f 63/7/61 62/7/61 66/7/61 
f 63/7/61 66/7/61 64/7/61 
f 73/6/62 71/6/53 70/6/52 
f 70/6/52 74/6/62 73/6/62 
f 72/6/56 56/6/55 55/6/63 
f 72/6/56 55/6/63 71/6/63 
f 72/6/56 71/6/63 73/6/63 
f 81/5/64 52/5/64 51/5/65 
f 51/5/65 82/5/66 81/5/64 
f 81/5/67 83/5/67 50/5/67 
f 50/5/67 52/5/67 81/5/67 
f 83/5/68 84/5/68 49/5/68 
f 49/5/68 48/5/68 50/5/68 
f 83/5/68 49/5/68 50/5/68 
f 84/5/69 46/5/69 49/5/69 
f 85/7/70 86/7/70 62/7/70 
f 62/7/70 61/7/70 85/7/70 
f 87/7/71 86/7/71 85/7/71 
f 85/7/71 88/7/71 87/7/71 
f 87/7/72 88/7/72 89/7/72 
f 89/7/72 90/7/72 87/7/72 
f 68/7/73 90/7/73 89/7/73 
f 89/7/73 69/7/73 68/7/73 
f 59/6/74 91/6/75 92/6/76 
f 92/6/76 53/6/74 59/6/74 
f 93/6/77 94/6/77 95/6/77 
f 95/6/77 96/6/77 93/6/77 
f 77/6/58 80/6/78 93/6/79 
f 57/6/58 77/6/58 93/6/79 
f 57/6/58 93/6/79 58/6/80 
f 94/6/81 93/6/81 80/6/81 
f 80/6/81 79/6/81 94/6/81 
f 86/7/61 87/7/61 90/7/61 
f 86/7/61 90/7/61 68/7/61 
f 86/7/61 68/7/61 62/7/61 
f 96/6/82 95/6/82 92/6/76 
f 92/6/76 91/6/75 96/6/82 
f 93/6/79 96/6/83 91/6/83 
f 93/6/79 91/6/83 59/6/83 
f 93/6/79 59/6/83 58/6/80 
f 39/5/37 82/5/66 51/5/65 
f 51/5/65 40/5/38 39/5/37 
# 144 faces

